<svg width="12" height="14" viewBox="0 0 12 14" fill="none" xmlns="http://www.w3.org/2000/svg">
<path d="M2.45142 10.414C2.5519 10.622 2.84812 10.622 2.9486 10.414C3.03717 10.2307 2.90361 10.0178 2.70001 10.0178C2.49641 10.0178 2.36285 10.2307 2.45142 10.414Z" stroke="#112E25"/>
<path d="M2.45142 7.68189C2.5519 7.88986 2.84812 7.88986 2.9486 7.68189C3.03717 7.49857 2.90361 7.28571 2.70001 7.28571C2.49641 7.28571 2.36285 7.49857 2.45142 7.68189Z" stroke="#112E25"/>
<path d="M3.14 0V2.27679M3.14 2.27679H2.5C1.39543 2.27679 0.5 3.17222 0.5 4.27679V5.00893M3.14 2.27679H8.42M8.42 0V2.27679M8.42 2.27679H9.5C10.6046 2.27679 11.5 3.17222 11.5 4.27679V5.00893M0.5 5.00893V10.75C0.5 11.8546 1.39543 12.75 2.5 12.75H9.5C10.6046 12.75 11.5 11.8546 11.5 10.75V5.00893M0.5 5.00893H11.5" stroke="#112E25"/>
</svg>
